# xmcd CD database file
#
# Track frame offsets:
#	150
#	33158
#	70470
#	117051
#	142750
#	172031
#	204499
#	231891
#	258160
#	286794
#	318775
#
# Disc length: 4589 seconds
#
# Revision: 0
# Processed by: cddbd v1.4PL0 Copyright (c) Steve Scherf et al.
# Submitted via: CDex 1.50
#
DISCID=9011eb0b
DTITLE=Daniel Messina Trio - El Sol Sale
DYEAR=2002
DGENRE=Jazz
TTITLE0=El caceralozo
TTITLE1=Penetrando
TTITLE2=Jamon y Morrenes
TTITLE3=Casi dos y medio
TTITLE4=La Mamma
TTITLE5=Buscando tu miranda
TTITLE6=Pelanaranjas
TTITLE7=El sol sale
TTITLE8=Prueba para el corazon
TTITLE9=Los arboles y el agua
TTITLE10=The << grill >> from Ipanema
EXTD=YEAR: 2002
EXTT0=
EXTT1=
EXTT2=
EXTT3=
EXTT4=
EXTT5=
EXTT6=
EXTT7=
EXTT8=
EXTT9=
EXTT10=
PLAYORDER=
